<svg width="34" height="34" viewBox="0 0 34 34" fill="none"
  xmlns="http://www.w3.org/2000/svg">
  <circle cx="17" cy="17" r="17" fill="#D4FFDD"/>
  <rect x="17.9131" y="24" width="2.43478" height="14" rx="1.21739" transform="rotate(-180 17.9131 24)" fill="white"/>
  <rect x="17.9131" y="24" width="2.43478" height="14" rx="1.21739" transform="rotate(-180 17.9131 24)" fill="white"/>
  <rect x="17.9131" y="24" width="2.43478" height="14" rx="1.21739" transform="rotate(-180 17.9131 24)" fill="white"/>
  <rect x="17.9131" y="24" width="2.43478" height="14" rx="1.21739" transform="rotate(-180 17.9131 24)" fill="#07CE8D"/>
  <rect x="10" y="17.9131" width="2.43478" height="14" rx="1.21739" transform="rotate(-90 10 17.9131)" fill="white"/>
  <rect x="10" y="17.9131" width="2.43478" height="14" rx="1.21739" transform="rotate(-90 10 17.9131)" fill="white"/>
  <rect x="10" y="17.9131" width="2.43478" height="14" rx="1.21739" transform="rotate(-90 10 17.9131)" fill="white"/>
  <rect x="10" y="17.9131" width="2.43478" height="14" rx="1.21739" transform="rotate(-90 10 17.9131)" fill="#07CE8D"/>
</svg>
